<svg width="36" height="36" viewBox="0 0 36 36" fill="none" xmlns="http://www.w3.org/2000/svg">
<path d="M0.990005 31.662C0.990005 32.598 1.314 33.39 1.962 34.038C2.61 34.686 3.42 35.028 4.392 35.064H11.196C12.132 35.064 12.942 34.722 13.626 34.038C14.31 33.354 14.634 32.562 14.598 31.662V4.392C14.598 3.456 14.274 2.646 13.626 1.962C12.978 1.278 12.168 0.954005 11.196 0.990005H4.392C3.456 0.990005 2.646 1.314 1.962 1.962C1.278 2.61 0.954005 3.42 0.990005 4.392V31.662ZM21.402 31.662C21.402 32.598 21.744 33.39 22.428 34.038C23.112 34.686 23.904 35.028 24.804 35.064H31.608C32.544 35.064 33.354 34.722 34.038 34.038C34.722 33.354 35.046 32.562 35.01 31.662V4.392C35.01 3.456 34.686 2.646 34.038 1.962C33.39 1.278 32.58 0.954005 31.608 0.990005H24.804C23.868 0.990005 23.076 1.314 22.428 1.962C21.78 2.61 21.438 3.42 21.402 4.392V31.662Z" fill="white"/>
</svg>
