<svg width="32" height="32" viewBox="0 0 32 32" fill="none" xmlns="http://www.w3.org/2000/svg">
<path d="M0.880005 28.144C0.880005 29.232 1.344 30.096 2.272 30.736C2.784 31.024 3.328 31.168 3.904 31.168C4.352 31.168 4.8 31.056 5.248 30.832L29.488 18.736C29.968 18.48 30.368 18.112 30.688 17.632C31.008 17.152 31.152 16.608 31.12 16C31.088 15.392 30.944 14.864 30.688 14.416C30.432 13.968 30.032 13.6 29.488 13.312L5.248 1.216C4.8 0.992005 4.352 0.880005 3.904 0.880005C3.36 0.880005 2.816 1.02401 2.272 1.31201C1.344 1.92001 0.880005 2.784 0.880005 3.904V28.144Z" fill="white"/>
</svg>
