<svg width="22" height="22" viewBox="0 0 22 22" fill="none" xmlns="http://www.w3.org/2000/svg">
<path d="M0.919998 19.096C0.919998 19.8213 1.22933 20.3973 1.848 20.824C2.18933 21.016 2.552 21.112 2.936 21.112C3.23466 21.112 3.53333 21.0373 3.832 20.888L19.992 12.824C20.312 12.6533 20.5787 12.408 20.792 12.088C21.0053 11.768 21.1013 11.4053 21.08 11C21.0587 10.5947 20.9627 10.2427 20.792 9.94401C20.6213 9.64535 20.3547 9.40001 19.992 9.20801L3.832 1.14401C3.53333 0.99468 3.23466 0.920013 2.936 0.920013C2.57333 0.920013 2.21066 1.01601 1.848 1.20801C1.22933 1.61335 0.919998 2.18935 0.919998 2.93601V19.096Z" fill="#00D254"/>
</svg>
